<svg id="visual" viewBox="0 0 960 540" width="960" height="540" xmlns="http://www.w3.org/2000/svg" xmlns:xlink="http://www.w3.org/1999/xlink" version="1.1"><path d="M0 141L80 131L160 82L240 131L320 120L400 131L480 168L560 201L640 82L720 125L800 60L880 114L960 158L960 0L880 0L800 0L720 0L640 0L560 0L480 0L400 0L320 0L240 0L160 0L80 0L0 0Z" fill="#00cc8e"></path><path d="M0 201L80 141L160 158L240 195L320 185L400 190L480 233L560 249L640 125L720 190L800 114L880 152L960 168L960 156L880 112L800 58L720 123L640 80L560 199L480 166L400 129L320 118L240 129L160 80L80 129L0 139Z" fill="#00c08c"></path><path d="M0 352L80 401L160 271L240 293L320 330L400 249L480 314L560 309L640 298L720 336L800 282L880 249L960 239L960 166L880 150L800 112L720 188L640 123L560 247L480 231L400 188L320 183L240 193L160 156L80 139L0 199Z" fill="#00b388"></path><path d="M0 471L80 438L160 390L240 379L320 352L400 368L480 406L560 401L640 320L720 433L800 433L880 330L960 384L960 237L880 247L800 280L720 334L640 296L560 307L480 312L400 247L320 328L240 291L160 269L80 399L0 350Z" fill="#00a784"></path><path d="M0 503L80 471L160 438L240 433L320 449L400 411L480 455L560 465L640 406L720 465L800 449L880 417L960 411L960 382L880 328L800 431L720 431L640 318L560 399L480 404L400 366L320 350L240 377L160 388L80 436L0 469Z" fill="#009b7f"></path><path d="M0 519L80 503L160 519L240 503L320 509L400 471L480 471L560 514L640 476L720 476L800 471L880 487L960 471L960 409L880 415L800 447L720 463L640 404L560 463L480 453L400 409L320 447L240 431L160 436L80 469L0 501Z" fill="#008f79"></path><path d="M0 541L80 541L160 541L240 541L320 541L400 541L480 541L560 541L640 541L720 541L800 541L880 541L960 541L960 469L880 485L800 469L720 474L640 474L560 512L480 469L400 469L320 507L240 501L160 517L80 501L0 517Z" fill="#038373"></path></svg>